<?xml version="1.0" standalone="no"?><svg xmlns="http://www.w3.org/2000/svg" viewBox="0 0 1440 320"><path fill="#5000ca" fill-opacity="0.3" d="M0,160L30,176C60,192,120,224,180,234.7C240,245,300,235,360,208C420,181,480,139,540,154.7C600,171,660,245,720,240C780,235,840,149,900,117.3C960,85,1020,107,1080,96C1140,85,1200,43,1260,37.3C1320,32,1380,64,1410,80L1440,96L1440,320L1410,320C1380,320,1320,320,1260,320C1200,320,1140,320,1080,320C1020,320,960,320,900,320C840,320,780,320,720,320C660,320,600,320,540,320C480,320,420,320,360,320C300,320,240,320,180,320C120,320,60,320,30,320L0,320Z"></path></svg>